<?xml version="1.0" standalone="no"?>
<!DOCTYPE svg PUBLIC "-//W3C//DTD SVG 20010904//EN"
 "http://www.w3.org/TR/2001/REC-SVG-20010904/DTD/svg10.dtd">
<svg version="1.0" xmlns="http://www.w3.org/2000/svg"
 width="500.000000pt" height="534.000000pt" viewBox="0 0 500.000000 534.000000"
 preserveAspectRatio="xMidYMid meet">

<g transform="translate(0.000000,534.000000) scale(0.100000,-0.100000)"
fill="#000000" stroke="none">
<path d="M4765 5324 c-405 -43 -899 -160 -1267 -300 -87 -33 -122 -42 -135
-35 -32 16 -236 80 -323 100 -245 57 -571 72 -815 38 -586 -82 -1115 -380
-1478 -836 -485 -609 -625 -1409 -377 -2160 26 -78 38 -126 31 -130 -6 -4 -58
-49 -116 -101 -162 -143 -261 -276 -281 -377 -5 -24 -1 -36 15 -52 27 -27 54
-27 226 4 287 52 367 52 373 4 4 -32 -19 -61 -202 -251 -175 -181 -306 -335
-359 -421 -66 -107 -63 -137 10 -137 79 0 161 28 468 155 89 37 177 67 198 68
86 3 77 -64 -48 -368 -95 -230 -134 -387 -118 -471 8 -47 10 -49 41 -48 99 5
360 181 697 470 185 159 234 198 241 191 3 -2 -12 -37 -32 -77 -37 -72 -37
-73 -31 -169 6 -104 39 -229 63 -238 8 -3 34 7 57 22 118 78 249 221 334 367
24 43 48 78 51 78 4 0 52 -9 107 -19 241 -46 553 -53 780 -16 916 146 1646
816 1866 1710 45 185 63 336 63 545 0 311 -48 559 -170 872 l-18 46 62 144
c171 399 265 740 307 1113 21 182 20 258 -3 278 -21 20 -39 20 -217 1z m112
-207 c-18 -296 -134 -740 -286 -1095 -408 -954 -1126 -1754 -2125 -2369 l-150
-92 -26 48 c-42 76 -117 183 -186 267 -62 74 -64 78 -47 95 10 9 153 133 318
274 l299 256 114 219 c71 138 111 227 108 237 -8 25 -207 284 -228 297 -11 6
-29 7 -52 0 -33 -9 -133 -102 -888 -833 l-88 -85 -42 32 c-105 79 -282 191
-341 216 l-65 28 38 97 c345 885 978 1569 1861 2012 466 233 1020 401 1559
473 120 16 169 22 209 24 l24 2 -6 -103z m-3242 -1429 c-223 -312 -439 -704
-530 -963 -15 -44 -31 -83 -34 -86 -7 -9 -591 -92 -597 -86 -5 4 211 580 373
997 l49 125 55 7 c30 3 198 18 374 33 176 14 325 28 330 29 21 7 17 -5 -20
-56z m1088 -686 l48 -62 -95 -182 -95 -183 -425 -365 c-234 -200 -429 -366
-434 -368 -5 -1 -26 19 -46 47 l-37 50 48 44 c26 24 190 170 363 324 474 422
434 381 484 503 84 208 120 281 131 267 5 -7 32 -41 58 -75z m-300 -136 l-38
-85 -260 -238 c-144 -131 -312 -285 -375 -343 -95 -87 -116 -101 -118 -85 -2
12 1 31 5 43 8 21 814 804 821 797 2 -2 -13 -42 -35 -89z m-899 -589 c27 -22
28 -25 13 -48 -9 -15 -20 -75 -28 -157 l-12 -132 46 -68 c93 -134 136 -182
162 -182 17 0 59 29 129 90 58 50 110 90 115 90 10 0 105 -113 151 -179 l23
-34 -27 -126 c-37 -165 -89 -339 -126 -410 -15 -32 -48 -79 -72 -106 -35 -38
-48 -46 -65 -41 -27 9 -48 62 -64 162 -10 69 -9 95 5 179 10 62 13 102 7 108
-16 16 -89 -27 -241 -143 -80 -61 -198 -151 -263 -200 -119 -91 -159 -112
-180 -91 -16 16 2 76 72 239 82 192 91 218 91 254 0 29 -2 30 -32 25 -18 -3
-95 -39 -171 -80 -142 -77 -214 -104 -243 -93 -30 11 -9 74 53 164 89 128 103
154 103 195 0 50 -26 86 -88 120 -49 27 -218 77 -259 77 -34 0 -37 18 -6 46
72 67 382 267 617 397 l119 66 71 -49 c39 -27 84 -60 100 -73z m1866 -501 l0
-394 -97 -52 c-54 -29 -298 -154 -542 -278 l-443 -225 6 104 c3 57 8 195 12
307 l7 202 81 43 c173 90 754 498 911 641 28 25 53 45 58 46 4 0 7 -177 7
-394z"/>
<path d="M3386 4284 c-97 -23 -185 -73 -257 -144 -202 -200 -194 -476 20 -691
101 -101 155 -124 296 -123 86 0 109 4 165 27 142 60 266 184 327 327 25 58
28 77 28 180 0 104 -3 122 -29 183 -15 37 -48 89 -72 115 -104 116 -303 168
-478 126z m248 -161 c141 -45 216 -237 155 -398 -29 -79 -113 -166 -198 -207
-57 -28 -76 -32 -146 -32 -64 0 -89 5 -125 23 -94 49 -157 132 -179 241 -36
172 93 341 293 385 67 16 126 12 200 -12z"/>
</g>
</svg>
